<svg width="28" height="29" viewBox="0 0 28 29" fill="none" xmlns="http://www.w3.org/2000/svg">
    <path d="M14.0063 7.81245C10.0313 7.81245 6.82505 11.0187 6.82505 14.9937C6.82505 18.9687 10.0313 22.1749 14.0063 22.1749C17.9813 22.1749 21.1875 18.9687 21.1875 14.9937C21.1875 11.0187 17.9813 7.81245 14.0063 7.81245ZM14.0063 19.6625C11.4375 19.6625 9.33755 17.5687 9.33755 14.9937C9.33755 12.4187 11.4313 10.325 14.0063 10.325C16.5813 10.325 18.675 12.4187 18.675 14.9937C18.675 17.5687 16.575 19.6625 14.0063 19.6625ZM23.1563 7.5187C23.1563 8.44995 22.4063 9.1937 21.4813 9.1937C20.5501 9.1937 19.8063 8.4437 19.8063 7.5187C19.8063 6.5937 20.5563 5.8437 21.4813 5.8437C22.4063 5.8437 23.1563 6.5937 23.1563 7.5187ZM27.9125 9.2187C27.8063 6.97495 27.2938 4.98745 25.65 3.34995C24.0125 1.71245 22.025 1.19995 19.7813 1.08745C17.4688 0.956201 10.5375 0.956201 8.22505 1.08745C5.98755 1.1937 4.00005 1.7062 2.3563 3.3437C0.712549 4.9812 0.206299 6.9687 0.0937988 9.21245C-0.0374512 11.525 -0.0374512 18.4562 0.0937988 20.7687C0.200049 23.0124 0.712549 25 2.3563 26.6375C4.00005 28.275 5.9813 28.7875 8.22505 28.9C10.5375 29.0312 17.4688 29.0312 19.7813 28.9C22.025 28.7937 24.0125 28.2812 25.65 26.6375C27.2875 25 27.8 23.0124 27.9125 20.7687C28.0438 18.4562 28.0438 11.5312 27.9125 9.2187ZM24.925 23.25C24.4375 24.475 23.4938 25.4187 22.2626 25.9125C20.4188 26.6437 16.0438 26.475 14.0063 26.475C11.9688 26.475 7.58755 26.6375 5.75005 25.9125C4.52505 25.425 3.5813 24.4812 3.08755 23.25C2.3563 21.4062 2.52505 17.0312 2.52505 14.9937C2.52505 12.9562 2.36255 8.57495 3.08755 6.73745C3.57505 5.51245 4.5188 4.5687 5.75005 4.07495C7.5938 3.3437 11.9688 3.51245 14.0063 3.51245C16.0438 3.51245 20.4251 3.34995 22.2626 4.07495C23.4876 4.56245 24.4313 5.5062 24.925 6.73745C25.6563 8.5812 25.4875 12.9562 25.4875 14.9937C25.4875 17.0312 25.6563 21.4125 24.925 23.25Z" fill="url(#paint0_linear_130_3)"/>
    <defs>
    <linearGradient id="paint0_linear_130_3" x1="14.0032" y1="0.989014" x2="14.0032" y2="28.9984" gradientUnits="userSpaceOnUse">
    <stop stop-color="#FF22A7"/>
    <stop offset="1" stop-color="#F56111"/>
    </linearGradient>
    </defs>
</svg>
