<svg width="67" height="46" viewBox="0 0 67 46" fill="none" xmlns="http://www.w3.org/2000/svg">
    <path d="M13.76 7.36C10.176 7.36 7.744 9.792 7.744 13.12C7.744 16.512 10.112 18.88 13.76 18.88C17.408 18.88 19.648 16.512 19.648 13.12C19.648 9.792 17.408 7.36 13.76 7.36ZM13.76 0C21.696 0 27.456 5.76 27.456 13.12C27.456 17.856 25.152 21.76 21.376 24L11.584 37.696H27.648V45.44H1.408V38.528L10.816 25.728C4.48 24.576 0 19.52 0 13.12C0 5.76 5.888 0 13.76 0Z" fill="#F90043"/>
    <path d="M47.6043 1.83984H51.0763V21.4398H47.6043V14.8038L40.5203 6.87984V21.4398H37.0483V1.83984H40.5203L47.6043 9.76384V1.83984ZM59.1721 5.22784V9.67984H64.9121V13.0398H59.1721V18.0798H66.8161V21.4398H55.5601V1.83984H66.8161V5.22784H59.1721Z" fill="#F90043"/>
    <path d="M48.5 25.4399V28.8559H43.8799V45.0399H40.2959V28.8559H35.6479V25.4399H48.5ZM52.4076 25.4399H65.3435V31.5999H61.7035V28.8559H55.9916V31.6559L65.1195 36.9759V41.6239V45.0399H52.4076V38.8799H55.9916V41.6239H61.5075V38.8239L52.4076 33.5039V25.4399Z" fill="#F90043"/>
</svg>
