<svg width="29" height="30" viewBox="0 0 29 30" fill="none" xmlns="http://www.w3.org/2000/svg">
<g clip-path="url(#clip0_138_7)">
<rect x="5" y="7" width="18" height="16" fill="white"/>
<path d="M14.5 0.46875C6.48992 0.46875 0 6.97266 0 15C0 23.0273 6.48992 29.5312 14.5 29.5312C22.5101 29.5312 29 23.0273 29 15C29 6.97266 22.5101 0.46875 14.5 0.46875ZM21.2238 10.3535C21.0075 12.6504 20.0603 18.2285 19.5808 20.8008C19.3762 21.8906 18.9786 22.2539 18.5927 22.2891C17.7508 22.3652 17.1135 21.7324 16.295 21.1934C15.0204 20.3555 14.2954 19.834 13.0617 19.0137C11.6292 18.0703 12.5589 17.5488 13.3716 16.6992C13.5879 16.4766 17.2948 13.0957 17.3649 12.791C17.3766 12.75 17.3825 12.6094 17.2948 12.5332C17.2071 12.457 17.0843 12.4863 16.9966 12.5039C16.8679 12.5312 14.8294 13.8809 10.8808 16.5527C10.304 16.9512 9.7797 17.1445 9.30806 17.1328C8.7877 17.1211 7.79375 16.8398 7.05121 16.5996C6.14496 16.3066 5.41996 16.1484 5.48427 15.6445C5.51546 15.3828 5.87601 15.1152 6.56593 14.8418C10.7912 12.998 13.6093 11.7812 15.0204 11.1914C19.0488 9.51562 19.8849 9.22266 20.4286 9.21094C20.5514 9.21094 20.8145 9.24023 20.9899 9.38086C21.1044 9.48172 21.1773 9.62166 21.1946 9.77344C21.2262 9.96507 21.236 10.1597 21.2238 10.3535Z" fill="#3193E9"/>
</g>
<defs>
<clipPath id="clip0_138_7">
<rect width="29" height="30" fill="white"/>
</clipPath>
</defs>
</svg>
