<svg width="29" height="32" viewBox="0 0 29 32" fill="none" xmlns="http://www.w3.org/2000/svg">
<rect x="4" y="7" width="21" height="18" fill="white"/>
<path d="M2.03906 3.96875C0 5.9375 0 9.10625 0 15.4375V16.5625C0 22.8938 0 26.0625 2.03906 28.0312C4.07812 30 7.36004 30 13.9174 30H15.0826C21.64 30 24.9219 30 26.9609 28.0312C29 26.0625 29 22.8938 29 16.5625V15.4375C29 9.10625 29 5.9375 26.9609 3.96875C24.9219 2 21.64 2 15.0826 2H13.9174C7.36004 2 4.07812 2 2.03906 3.96875ZM4.89375 10.5188H8.20156C8.31161 15.8625 10.752 18.125 12.6875 18.5875V10.5188H15.8076V15.125C17.7172 14.925 19.7174 12.825 20.3971 10.5188H23.5172C23.2583 11.7125 22.7533 12.85 22.0219 13.85C21.2904 14.85 20.3583 15.6938 19.2708 16.325C20.4813 16.9063 21.5493 17.725 22.4038 18.7375C23.2647 19.7437 23.8862 20.9125 24.2422 22.1688H20.8049C20.4942 21.0813 19.8469 20.1 18.96 19.3625C18.0667 18.6187 16.9728 18.15 15.8076 18.0063V22.1688H15.4321C8.82299 22.1688 5.04911 17.7938 4.89375 10.5188Z" fill="#3D6CE4"/>
</svg>
